<?xml version="1.0" standalone="no"?>
<!DOCTYPE svg PUBLIC "-//W3C//DTD SVG 20010904//EN"
 "http://www.w3.org/TR/2001/REC-SVG-20010904/DTD/svg10.dtd">
<svg version="1.0" xmlns="http://www.w3.org/2000/svg"
 width="512.000000pt" height="512.000000pt" viewBox="0 0 512.000000 512.000000"
 preserveAspectRatio="xMidYMid meet">
<metadata>
Created by potrace 1.11, written by Peter Selinger 2001-2013
</metadata>
<g transform="translate(0.000000,512.000000) scale(0.100000,-0.100000)"
fill="#000000" stroke="none">
<path d="M174 5113 c-12 -2 -34 -18 -50 -34 l-29 -30 -3 -1737 c-2 -1638 -1
-1739 15 -1772 33 -64 35 -65 471 -68 l392 -3 0 -390 c0 -420 1 -432 53 -461
16 -10 126 -14 437 -18 l415 -5 5 -260 c5 -240 7 -262 25 -287 11 -15 36 -33
55 -38 24 -8 498 -10 1517 -8 l1483 3 32 33 33 32 3 1738 c2 1638 1 1739 -15
1772 -33 65 -34 65 -485 68 l-407 3 -3 257 c-3 239 -4 259 -23 284 -11 15 -27
31 -35 35 -8 4 -195 10 -415 13 l-400 5 -5 400 c-5 380 -6 401 -25 427 -11 15
-33 32 -49 38 -28 10 -2942 13 -2992 3z m2826 -1813 l0 -1580 -1335 0 -1335 0
0 1580 0 1580 1335 0 1335 0 0 -1580z m880 525 l0 -175 -320 0 -320 0 0 175 0
175 320 0 320 0 0 -175z m910 -2005 l0 -1580 -1335 0 -1335 0 0 615 0 615 64
0 65 0 3 -267 c3 -250 4 -270 23 -295 46 -62 -19 -59 1197 -56 l1107 3 31 30
c16 16 35 46 40 66 7 24 9 422 8 1126 -3 1021 -4 1091 -21 1116 -42 65 -3 62
-734 65 l-663 3 0 69 0 70 775 0 775 0 0 -1580z m-380 235 l0 -955 -955 0
-955 0 0 185 0 185 318 0 317 0 115 -116 c63 -63 127 -122 143 -130 37 -20 86
-20 122 -1 17 8 179 165 361 349 247 248 340 349 367 396 103 177 109 371 15
555 -40 80 -154 192 -238 235 -159 79 -349 80 -504 1 l-62 -31 -54 27 c-29 15
-75 34 -102 41 l-48 15 0 99 0 100 580 0 580 0 0 -955z m-527 495 c153 -58
236 -246 177 -405 -21 -56 -44 -82 -314 -353 l-290 -292 -103 102 -103 103 0
422 c0 233 3 423 8 423 8 0 57 -30 121 -72 63 -43 125 -33 197 33 62 57 208
76 307 39z m-2003 -1395 l0 -315 -335 0 -335 0 0 315 0 315 335 0 335 0 0
-315z"/>
<path d="M531 4713 c-23 -11 -40 -31 -53 -59 -18 -41 -18 -85 -16 -1136 3
-1023 4 -1095 21 -1125 36 -67 -41 -64 1196 -61 1103 3 1119 3 1141 23 52 46
50 6 49 1172 0 816 -3 1097 -12 1123 -7 19 -27 44 -46 57 l-34 23 -1106 0
c-1013 0 -1109 -2 -1140 -17z m2089 -1183 l0 -960 -40 0 -40 0 0 203 c0 225
-9 279 -61 378 -17 32 -50 77 -73 101 l-42 43 43 58 c229 314 -6 749 -391 724
-98 -6 -173 -33 -243 -87 l-53 -40 -26 52 c-32 63 -114 151 -172 185 -181 106
-414 74 -561 -77 -160 -165 -168 -434 -19 -608 l29 -34 -43 -46 c-55 -59 -83
-104 -110 -178 -20 -55 -22 -82 -26 -366 l-4 -308 -39 0 -39 0 0 960 0 960
955 0 955 0 0 -960z m-1269 469 c178 -54 203 -305 39 -389 -85 -43 -187 -30
-247 32 -155 160 -4 420 208 357z m748 -169 c153 -44 206 -230 98 -347 -101
-110 -274 -86 -341 48 -31 64 -33 117 -5 179 27 60 45 79 104 106 54 26 91 29
144 14z m-704 -519 c46 -20 97 -68 123 -115 15 -27 17 -70 20 -328 l3 -298
-256 0 -257 0 4 283 3 283 30 59 c64 125 199 172 330 116z m762 -174 c52 -25
84 -58 115 -117 21 -42 23 -58 27 -247 l3 -203 -257 0 -256 0 3 208 c3 227 6
241 72 310 74 80 190 99 293 49z"/>
</g>
</svg>
